<svg width="353" height="353" viewBox="0 0 353 353" fill="none" xmlns="http://www.w3.org/2000/svg">
<rect width="353" height="353"/>
<path d="M125.812 221.406C123.265 221.406 120.823 220.026 119.549 217.69C115.622 210.47 113.074 202.719 112.118 194.543C111.375 188.385 111.482 182.226 112.437 176.174L112.543 175.749C113.18 171.927 114.454 167.467 116.471 162.583C116.577 162.371 116.683 162.052 116.789 161.84C117.851 159.398 119.018 156.956 120.398 154.62C122.415 151.222 126.768 150.054 130.271 151.965C133.668 153.983 134.835 158.336 132.925 161.84C131.757 163.751 130.802 165.875 129.952 167.892C129.846 168.104 129.846 168.211 129.74 168.423C128.36 172.139 127.299 175.431 126.874 178.085L126.768 178.404C126.025 183.076 125.919 187.96 126.555 192.844C127.299 199.215 129.315 205.267 132.394 210.788C134.305 214.292 133.031 218.646 129.528 220.557C128.148 221.088 126.98 221.406 125.812 221.406Z" fill="#D8D8D8"/>
<path d="M152.669 141.666C149.909 141.666 147.361 140.073 146.088 137.419C144.389 133.808 145.981 129.561 149.591 127.862C153.518 126.057 157.658 124.677 161.905 123.721C165.726 122.872 169.654 125.208 170.503 129.137C171.352 132.959 169.017 136.888 165.089 137.737C161.798 138.48 158.614 139.542 155.535 141.029C154.686 141.453 153.731 141.666 152.669 141.666Z" fill="#D8D8D8"/>
<path d="M225.704 164.6C223.262 164.6 220.821 163.326 219.441 160.99C217.742 158.017 215.725 155.363 213.496 152.815C210.842 149.842 211.054 145.276 214.027 142.621C216.999 139.967 221.564 140.179 224.218 143.152C227.084 146.338 229.632 149.948 231.861 153.664C233.878 157.062 232.71 161.521 229.313 163.539C228.252 164.282 226.978 164.6 225.704 164.6Z" fill="#D8D8D8"/>
<path d="M205.004 242.96C202.456 242.96 200.121 241.686 198.741 239.35C196.724 235.953 197.998 231.493 201.395 229.582C204.367 227.883 207.127 225.972 209.675 223.742C221.989 212.912 228.252 196.666 226.235 180.315C225.81 176.386 228.57 172.776 232.498 172.351C236.426 171.927 240.035 174.687 240.459 178.616C243.007 199.639 234.939 220.557 219.122 234.572C215.832 237.439 212.329 239.987 208.507 242.111C207.445 242.748 206.172 242.96 205.004 242.96Z" fill="#D8D8D8"/>
<path d="M171.565 250.287C171.353 250.287 171.14 250.287 170.928 250.287C160.949 249.437 151.183 246.146 142.691 240.731C139.294 238.607 138.339 234.148 140.356 230.856C142.479 227.458 146.937 226.503 150.228 228.52C156.809 232.661 164.453 235.209 172.096 235.953C176.023 236.271 178.996 239.775 178.571 243.81C178.465 247.42 175.28 250.287 171.565 250.287Z" fill="#D8D8D8"/>
<path d="M85.8212 167.899C85.1843 167.899 84.5473 167.793 83.8043 167.58C79.9827 166.518 77.7535 162.484 78.815 158.661C79.9827 154.732 81.3627 150.804 82.955 146.981C83.0612 146.663 83.1673 146.344 83.2735 146.132C85.6089 141.035 89.2182 133.815 93.5705 127.975L93.9951 127.444C99.6213 120.012 106.203 113.429 113.74 107.695C123.718 100.263 134.758 94.7414 146.754 91.4498C150.575 90.388 154.503 92.6178 155.565 96.4402C156.626 100.263 154.397 104.191 150.575 105.253C140.278 108.12 130.831 112.792 122.338 119.163C115.863 124.047 110.131 129.78 105.354 136.045L105.035 136.47C102.275 140.186 99.409 145.283 96.649 151.229C96.5428 151.441 96.4367 151.653 96.3305 151.972C94.8443 155.37 93.5705 158.98 92.5089 162.59C91.872 165.881 88.8997 167.899 85.8212 167.899Z" fill="#D8D8D8"/>
<path d="M262.887 204C262.675 204 262.356 204 262.144 204C258.216 203.575 255.35 200.071 255.775 196.142C256.518 189.241 256.412 182.127 255.35 175.225C254.819 171.296 257.473 167.686 261.401 167.049C265.329 166.518 268.938 169.173 269.575 173.101C270.742 181.171 270.955 189.453 270.105 197.629C269.575 201.239 266.496 204 262.887 204Z" fill="#D8D8D8"/>
<path d="M251.422 149.424C248.981 149.424 246.539 148.149 245.159 145.814C242.293 140.823 238.896 136.151 235.075 131.904C231.359 127.763 227.219 123.941 222.655 120.543C219.47 118.207 218.833 113.641 221.168 110.456C223.504 107.271 228.068 106.633 231.253 108.969C236.561 112.898 241.444 117.358 245.796 122.242C250.255 127.232 254.289 132.753 257.579 138.593C259.596 141.991 258.322 146.451 254.925 148.362C253.864 149.105 252.696 149.424 251.422 149.424Z" fill="#D8D8D8"/>
<path d="M205.351 109.819C204.502 109.819 203.547 109.606 202.698 109.288C200.681 108.545 198.664 107.801 196.647 107.164C194.63 106.527 192.507 105.996 190.49 105.465C186.668 104.616 184.227 100.687 185.076 96.865C185.925 93.0425 189.853 90.6004 193.674 91.4498C196.116 91.9807 198.558 92.6178 200.893 93.3611C203.228 94.1043 205.67 94.9538 208.005 95.9094C211.721 97.3959 213.525 101.537 212.039 105.253C210.978 108.12 208.218 109.819 205.351 109.819Z" fill="#D8D8D8"/>
<path d="M173.186 284.696C169.153 284.696 165.119 284.483 161.191 283.952C157.263 283.421 154.397 279.918 154.928 275.989C155.459 272.06 158.962 269.193 162.889 269.724C168.516 270.361 174.142 270.574 179.768 270.149C207.05 268.026 231.465 252.417 245.159 228.633C247.176 225.235 251.528 223.961 254.925 225.979C258.322 227.996 259.596 232.349 257.579 235.747C241.55 263.672 212.888 281.829 180.83 284.377C178.388 284.589 175.84 284.696 173.186 284.696Z" fill="#D8D8D8"/>
<path d="M112.891 261.549C111.192 261.549 109.494 260.911 108.114 259.744C96.8616 249.657 87.9446 236.809 82.4246 222.581C80.9384 218.865 82.8492 214.724 86.4585 213.237C90.1739 211.751 94.3139 213.662 95.8001 217.272C100.577 229.376 108.114 240.313 117.774 248.913C120.746 251.568 120.959 256.133 118.305 259.106C116.819 260.805 114.802 261.549 112.891 261.549Z" fill="#D8D8D8"/>
<path fill-rule="evenodd" clip-rule="evenodd" d="M237.377 67.4844C239.506 63.9282 244.114 62.7706 247.67 64.8989C268.514 77.3732 285.767 95.038 297.748 116.17C309.728 137.301 316.025 161.177 316.025 185.469C316.025 189.613 312.665 192.973 308.521 192.973C304.377 192.973 301.017 189.613 301.017 185.469C301.017 163.772 295.392 142.446 284.692 123.571C273.991 104.697 258.58 88.9189 239.963 77.777C236.407 75.6487 235.249 71.0406 237.377 67.4844Z" fill="#D8D8D8"/>
<path fill-rule="evenodd" clip-rule="evenodd" d="M277.653 270.997C280.675 273.832 280.827 278.581 277.991 281.604C259.839 300.954 236.579 314.769 210.903 321.452C206.892 322.495 202.795 320.09 201.751 316.079C200.707 312.069 203.112 307.971 207.123 306.927C230.057 300.958 250.832 288.619 267.046 271.335C269.881 268.313 274.63 268.161 277.653 270.997Z" fill="#D8D8D8"/>
<path fill-rule="evenodd" clip-rule="evenodd" d="M63.1001 256.96C66.4664 254.543 71.155 255.312 73.5726 258.678C84.0224 273.229 97.5085 285.431 113.174 294.396C133.919 306.269 157.624 311.971 181.5 310.83C185.639 310.633 189.156 313.828 189.353 317.968C189.551 322.108 186.355 325.624 182.216 325.821C155.485 327.098 128.946 320.715 105.719 307.422C88.1804 297.385 73.0817 283.723 61.3823 267.433C58.9648 264.066 59.7339 259.378 63.1001 256.96Z" fill="#D8D8D8"/>
<path fill-rule="evenodd" clip-rule="evenodd" d="M92.4977 81.2763C95.2587 84.367 94.9914 89.1108 91.9007 91.8718C82.7578 100.039 74.861 109.502 68.4619 119.959C66.2987 123.494 61.6793 124.606 58.1443 122.443C54.6093 120.28 53.4972 115.661 55.6605 112.126C62.8248 100.418 71.6659 89.8234 81.9021 80.6793C84.9928 77.9182 89.7366 78.1855 92.4977 81.2763Z" fill="#D8D8D8"/>
<path fill-rule="evenodd" clip-rule="evenodd" d="M47.0516 150.179C51.1034 151.05 53.682 155.041 52.811 159.093C48.053 181.228 49.3711 204.237 56.6257 225.684C57.9537 229.61 55.8477 233.869 51.9219 235.197C47.996 236.525 43.7369 234.419 42.4089 230.493C34.2867 206.482 32.811 180.721 38.138 155.939C39.009 151.887 42.9997 149.308 47.0516 150.179Z" fill="#D8D8D8"/>
<path fill-rule="evenodd" clip-rule="evenodd" d="M179.598 52.3114C179.705 56.4544 176.432 59.8993 172.289 60.0058C154.392 60.4655 136.8 64.7491 120.695 72.5688C116.967 74.379 112.477 72.8241 110.667 69.096C108.857 65.3678 110.412 60.8781 114.14 59.0679C132.171 50.3131 151.866 45.5173 171.904 45.0025C176.047 44.8961 179.492 48.1684 179.598 52.3114Z" fill="#D8D8D8"/>
<path fill-rule="evenodd" clip-rule="evenodd" d="M305.574 214.305C309.564 215.428 311.887 219.573 310.763 223.562C308.622 231.163 305.844 238.57 302.459 245.704C300.683 249.448 296.207 251.044 292.463 249.267C288.719 247.49 287.123 243.015 288.9 239.27C291.924 232.898 294.405 226.282 296.317 219.493C297.44 215.504 301.585 213.181 305.574 214.305Z" fill="#D8D8D8"/>
<path d="M226 187.5C226 215.943 202.943 239 174.5 239C146.057 239 123 215.943 123 187.5C123 159.057 146.057 136 174.5 136C202.943 136 226 159.057 226 187.5Z" fill="#2192FF"/>
<path d="M184.178 189.062C181.289 189.062 179.994 190.656 175.312 190.656C170.531 190.656 169.236 189.062 166.348 189.062C158.977 189.062 153 195.139 153 202.51V206.594C153 209.283 155.092 211.375 157.781 211.375H192.844C195.434 211.375 197.625 209.283 197.625 206.594V202.51C197.625 195.139 191.549 189.062 184.178 189.062ZM194.438 206.594C194.438 207.49 193.641 208.188 192.844 208.188H157.781C156.885 208.188 156.188 207.49 156.188 206.594V202.51C156.188 196.832 160.67 192.25 166.348 192.25C168.34 192.25 170.232 193.844 175.312 193.844C180.293 193.844 182.285 192.25 184.178 192.25C189.855 192.25 194.438 196.832 194.438 202.51V206.594ZM175.312 185.875C182.285 185.875 188.062 180.197 188.062 173.125C188.062 166.152 182.285 160.375 175.312 160.375C168.24 160.375 162.562 166.152 162.562 173.125C162.562 180.197 168.24 185.875 175.312 185.875ZM175.312 163.562C180.492 163.562 184.875 167.945 184.875 173.125C184.875 178.404 180.492 182.688 175.312 182.688C170.033 182.688 165.75 178.404 165.75 173.125C165.75 167.945 170.033 163.562 175.312 163.562Z" fill="white"/>
<path d="M118 135.5C118 157.315 100.315 175 78.5 175C56.6848 175 39 157.315 39 135.5C39 113.685 56.6848 96 78.5 96C100.315 96 118 113.685 118 135.5Z" fill="#333333"/>
<path d="M79 130.195C76.6211 130.277 74.6523 131.016 73.0938 132.574C71.6172 134.051 70.7969 136.02 70.8789 138.07C70.9609 142.172 70.5508 146.355 69.7305 150.293C69.5664 151.031 70.0586 151.77 70.7148 151.852C71.4531 152.016 72.1094 151.605 72.2734 150.867C73.1758 146.684 73.5859 142.336 73.5039 138.07C73.5039 136.676 73.9961 135.363 74.9805 134.379C76.457 132.902 78.4258 132.82 79 132.82C82.0352 132.902 84.4141 135.363 84.4141 138.234C84.4961 142.418 84.25 146.52 83.5117 150.621C83.4297 151.277 83.9219 151.934 84.6602 152.098C84.6602 152.098 84.7422 152.098 84.8242 152.098C85.4805 152.098 86.0547 151.688 86.1367 151.031C86.793 146.848 87.1211 142.5 87.1211 138.234C87.0391 133.887 83.4297 130.277 79 130.195ZM78.918 137.332C78.2617 137.332 77.6875 137.906 77.6875 138.645C77.7695 144.633 76.9492 150.539 75.3906 156.281L75.3086 156.609C75.1445 157.184 75.3906 158.25 76.5391 158.25C77.1133 158.25 77.6055 157.922 77.7695 157.348L77.9336 156.938C79.5742 150.949 80.3945 144.879 80.3125 138.562C80.3125 137.824 79.5742 137.25 78.918 137.332ZM67.1875 128.555C65.1367 131.098 63.9883 134.297 64.0703 137.578C64.1523 140.859 63.8242 144.141 63.25 147.258C63.168 147.996 63.6602 148.652 64.3164 148.816C64.3984 148.816 64.4805 148.816 64.5625 148.816C65.2188 148.816 65.793 148.324 65.875 147.75C66.4492 144.387 66.7773 141.023 66.6953 137.578C66.6953 134.871 67.5156 132.328 69.2383 130.195C69.7305 129.703 69.6484 128.883 69.0742 128.391C68.5 127.898 67.6797 127.98 67.1875 128.555ZM99.918 137.004C99.918 135.691 99.7539 134.297 99.5078 132.984C99.3438 132.328 98.6055 131.836 97.9492 132C97.2109 132.164 96.7188 132.82 96.8828 133.559C97.1289 134.707 97.293 135.855 97.293 137.086C97.375 137.66 97.375 138.316 97.293 138.973C97.293 139.711 97.9492 140.285 98.6055 140.285C99.3438 140.285 99.918 139.711 99.918 138.973C100 138.316 100 137.66 99.918 137.004ZM78.6719 116.332C72.9297 116.168 67.6797 118.301 63.7422 122.238C59.9688 126.094 57.918 131.098 58 136.512C58 137.086 58 137.742 58 138.316C57.918 139.055 58.4922 139.711 59.2305 139.711H59.3125C59.9688 139.711 60.543 139.137 60.625 138.398C60.625 137.742 60.625 137.086 60.625 136.43C60.543 131.754 62.2656 127.406 65.5469 124.125C68.9922 120.68 73.668 118.875 78.6719 118.957C84.7422 119.039 90.4844 122.074 94.0117 127.078C94.4219 127.652 95.2422 127.816 95.8984 127.406C96.4727 126.996 96.6367 126.176 96.2266 125.52C92.207 119.859 85.6445 116.414 78.6719 116.332ZM78.7539 123.223C78.6719 123.223 78.5898 123.223 78.5078 123.223C77.3594 123.223 76.2109 123.387 75.0625 123.633C74.4063 123.797 73.9141 124.535 74.0781 125.273C74.2422 125.93 74.9805 126.422 75.7188 126.258C76.7031 126.012 77.7695 125.848 78.7539 125.848C85.5625 126.012 91.1406 131.426 91.2227 137.988C91.3047 141.27 91.1406 144.551 90.7305 147.75C90.6484 148.488 91.2227 149.145 91.9609 149.227H92.043C92.6992 149.227 93.2734 148.734 93.3555 148.078C93.7656 144.715 93.9297 141.352 93.8477 137.988C93.7656 129.949 86.957 123.387 78.7539 123.223Z" fill="white"/>
<path d="M241 291.5C241 313.315 223.315 331 201.5 331C179.685 331 162 313.315 162 291.5C162 269.685 179.685 252 201.5 252C223.315 252 241 269.685 241 291.5Z" fill="#333333"/>
<path d="M204.75 306.375C204.75 304.98 203.52 303.75 202.125 303.75C200.648 303.75 199.5 304.98 199.5 306.375C199.5 307.852 200.648 309 202.125 309C203.52 309 204.75 307.852 204.75 306.375ZM215.25 276.188C215.25 274.055 213.445 272.25 211.312 272.25H192.938C190.723 272.25 189 274.055 189 276.188V310.312C189 312.527 190.723 314.25 192.938 314.25H211.312C213.445 314.25 215.25 312.527 215.25 310.312V276.188ZM212.625 276.188V310.312C212.625 311.051 211.969 311.625 211.312 311.625H192.938C192.199 311.625 191.625 311.051 191.625 310.312V276.188C191.625 275.531 192.199 274.875 192.938 274.875H211.312C211.969 274.875 212.625 275.531 212.625 276.188Z" fill="white"/>
<path d="M292 114.5C292 136.315 274.315 154 252.5 154C230.685 154 213 136.315 213 114.5C213 92.6848 230.685 75 252.5 75C274.315 75 292 92.6848 292 114.5Z" fill="#333333"/>
<path d="M268.75 96.25H237.25C234.297 96.25 232 98.6289 232 101.5V125.125C232 128.078 234.297 130.375 237.25 130.375H245.125V137.266C245.125 137.922 245.535 138.25 246.109 138.25C246.273 138.25 246.438 138.25 246.684 138.086L256.938 130.375H268.75C271.621 130.375 274 128.078 274 125.125V101.5C274 98.6289 271.621 96.25 268.75 96.25ZM271.375 125.125C271.375 126.602 270.145 127.75 268.75 127.75H256.035L255.297 128.324L247.75 133.984V127.75H237.25C235.773 127.75 234.625 126.602 234.625 125.125V101.5C234.625 100.105 235.773 98.875 237.25 98.875H268.75C270.145 98.875 271.375 100.105 271.375 101.5V125.125Z" fill="white"/>
</svg>
